<svg xmlns="http://www.w3.org/2000/svg" width="760" height="300" viewBox="0 0 760 300" font-family="sans-serif">
<rect width="760" height="300" fill="#ffffff"/>
<text x="50" y="24" font-size="16" font-weight="bold" fill="#111827">GitHub clones (last 14 days rolling)</text>
<line x1="50" y1="40" x2="50" y2="260" stroke="#d1d5db" stroke-width="1"/>
<line x1="50" y1="260" x2="740" y2="260" stroke="#d1d5db" stroke-width="1"/>
<line x1="50" y1="260" x2="740" y2="260" stroke="#f3f4f6" stroke-width="1"/>
<text x="44" y="264" font-size="10" fill="#6b7280" text-anchor="end">0</text>
<line x1="50" y1="150" x2="740" y2="150" stroke="#f3f4f6" stroke-width="1"/>
<text x="44" y="154" font-size="10" fill="#6b7280" text-anchor="end">50</text>
<line x1="50" y1="40" x2="740" y2="40" stroke="#f3f4f6" stroke-width="1"/>
<text x="44" y="44" font-size="10" fill="#6b7280" text-anchor="end">100</text>
<text x="50" y="276" font-size="9" fill="#6b7280" text-anchor="middle">05-25</text>
<text x="148.57" y="276" font-size="9" fill="#6b7280" text-anchor="middle">05-28</text>
<text x="247.14" y="276" font-size="9" fill="#6b7280" text-anchor="middle">05-31</text>
<text x="345.71" y="276" font-size="9" fill="#6b7280" text-anchor="middle">06-03</text>
<text x="444.29" y="276" font-size="9" fill="#6b7280" text-anchor="middle">06-06</text>
<text x="542.86" y="276" font-size="9" fill="#6b7280" text-anchor="middle">06-09</text>
<text x="641.43" y="276" font-size="9" fill="#6b7280" text-anchor="middle">06-12</text>
<text x="740" y="276" font-size="9" fill="#6b7280" text-anchor="middle">06-15</text>
<polyline fill="none" stroke="#2563eb" stroke-width="2" points="50,260 82.86,257.8 115.71,255.6 148.57,260 181.43,255.6 214.29,260 247.14,257.8 280,257.8 312.86,246.8 345.71,260 378.57,257.8 411.43,260 444.29,244.6 477.14,251.2 510,260 542.86,53.2 575.71,216 608.57,246.8 641.43,233.6 674.29,224.8 707.14,227 740,244.6"/>
<rect x="50" y="283" width="10" height="10" fill="#2563eb"/>
<text x="64" y="292" font-size="10" fill="#374151">count</text>
<polyline fill="none" stroke="#16a34a" stroke-width="2" points="50,260 82.86,257.8 115.71,255.6 148.57,260 181.43,257.8 214.29,260 247.14,257.8 280,257.8 312.86,249 345.71,260 378.57,257.8 411.43,260 444.29,251.2 477.14,255.6 510,260 542.86,200.6 575.71,242.4 608.57,253.4 641.43,242.4 674.29,235.8 707.14,235.8 740,251.2"/>
<rect x="160" y="283" width="10" height="10" fill="#16a34a"/>
<text x="174" y="292" font-size="10" fill="#374151">uniques</text>
</svg>
