<svg xmlns="http://www.w3.org/2000/svg" width="760" height="300" viewBox="0 0 760 300" font-family="sans-serif">
<rect width="760" height="300" fill="#ffffff"/>
<text x="50" y="24" font-size="16" font-weight="bold" fill="#111827">GitHub clones (cumulative total)</text>
<line x1="50" y1="40" x2="50" y2="260" stroke="#d1d5db" stroke-width="1"/>
<line x1="50" y1="260" x2="740" y2="260" stroke="#d1d5db" stroke-width="1"/>
<line x1="50" y1="260" x2="740" y2="260" stroke="#f3f4f6" stroke-width="1"/>
<text x="44" y="264" font-size="10" fill="#6b7280" text-anchor="end">0</text>
<line x1="50" y1="150" x2="740" y2="150" stroke="#f3f4f6" stroke-width="1"/>
<text x="44" y="154" font-size="10" fill="#6b7280" text-anchor="end">355</text>
<line x1="50" y1="40" x2="740" y2="40" stroke="#f3f4f6" stroke-width="1"/>
<text x="44" y="44" font-size="10" fill="#6b7280" text-anchor="end">710</text>
<text x="50" y="276" font-size="9" fill="#6b7280" text-anchor="middle">05-25</text>
<text x="143.56" y="276" font-size="9" fill="#6b7280" text-anchor="middle">06-02</text>
<text x="237.12" y="276" font-size="9" fill="#6b7280" text-anchor="middle">06-10</text>
<text x="330.68" y="276" font-size="9" fill="#6b7280" text-anchor="middle">06-18</text>
<text x="424.24" y="276" font-size="9" fill="#6b7280" text-anchor="middle">06-26</text>
<text x="517.8" y="276" font-size="9" fill="#6b7280" text-anchor="middle">07-04</text>
<text x="611.36" y="276" font-size="9" fill="#6b7280" text-anchor="middle">07-12</text>
<text x="704.92" y="276" font-size="9" fill="#6b7280" text-anchor="middle">07-20</text>
<polyline fill="none" stroke="#2563eb" stroke-width="2" points="50,260 61.69,259.69 73.39,259.07 85.08,259.07 96.78,258.45 108.47,258.45 120.17,258.14 131.86,257.83 143.56,255.97 155.25,255.97 166.95,255.66 178.64,255.66 190.34,253.49 202.03,252.25 213.73,252.25 225.42,223.13 237.12,216.93 248.81,215.07 260.51,211.35 272.2,206.39 283.9,201.75 295.59,199.58 307.29,196.48 318.98,190.28 330.68,185.94 342.37,182.85 354.07,166.73 365.76,155.58 377.46,149.69 389.15,138.23 400.85,133.27 412.54,129.24 424.24,122.73 435.93,117.15 447.63,109.1 459.32,107.86 471.02,106.31 482.71,105.38 494.41,102.9 506.1,93.61 517.8,88.34 529.49,84.62 541.19,80.59 552.88,77.49 564.58,74.39 576.27,70.99 587.97,69.13 599.66,65.41 611.36,62.31 623.05,60.14 634.75,56.42 646.44,55.8 658.14,53.63 669.83,52.7 681.53,50.54 693.22,49.61 704.92,48.37 716.61,47.13 728.31,46.51 740,41.24"/>
<rect x="50" y="283" width="10" height="10" fill="#2563eb"/>
<text x="64" y="292" font-size="10" fill="#374151">count</text>
<polyline fill="none" stroke="#16a34a" stroke-width="2" points="50,260 61.69,259.69 73.39,259.07 85.08,259.07 96.78,258.76 108.47,258.76 120.17,258.45 131.86,258.14 143.56,256.59 155.25,256.59 166.95,256.28 178.64,256.28 190.34,255.04 202.03,254.42 213.73,254.42 225.42,246.06 237.12,243.58 248.81,242.65 260.51,240.17 272.2,236.76 283.9,233.35 295.59,232.11 307.29,230.56 318.98,226.85 330.68,224.06 342.37,222.51 354.07,216.31 365.76,211.04 377.46,208.25 389.15,202.68 400.85,199.58 412.54,196.79 424.24,192.76 435.93,189.35 447.63,184.7 459.32,183.46 471.02,182.23 482.71,181.3 494.41,179.44 506.1,176.03 517.8,173.55 529.49,171.07 541.19,168.59 552.88,166.42 564.58,164.56 576.27,162.7 587.97,161.46 599.66,159.3 611.36,157.75 623.05,156.2 634.75,154.03 646.44,153.41 658.14,151.86 669.83,151.24 681.53,149.69 693.22,149.07 704.92,148.14 716.61,147.21 728.31,146.59 740,143.18"/>
<rect x="160" y="283" width="10" height="10" fill="#16a34a"/>
<text x="174" y="292" font-size="10" fill="#374151">uniques</text>
</svg>
