<svg xmlns="http://www.w3.org/2000/svg" width="760" height="300" viewBox="0 0 760 300" font-family="sans-serif">
<rect width="760" height="300" fill="#ffffff"/>
<text x="50" y="24" font-size="16" font-weight="bold" fill="#111827">GitHub clones (cumulative total)</text>
<line x1="50" y1="40" x2="50" y2="260" stroke="#d1d5db" stroke-width="1"/>
<line x1="50" y1="260" x2="740" y2="260" stroke="#d1d5db" stroke-width="1"/>
<line x1="50" y1="260" x2="740" y2="260" stroke="#f3f4f6" stroke-width="1"/>
<text x="44" y="264" font-size="10" fill="#6b7280" text-anchor="end">0</text>
<line x1="50" y1="150" x2="740" y2="150" stroke="#f3f4f6" stroke-width="1"/>
<text x="44" y="154" font-size="10" fill="#6b7280" text-anchor="end">535</text>
<line x1="50" y1="40" x2="740" y2="40" stroke="#f3f4f6" stroke-width="1"/>
<text x="44" y="44" font-size="10" fill="#6b7280" text-anchor="end">1070</text>
<text x="50" y="276" font-size="9" fill="#6b7280" text-anchor="middle">05-25</text>
<text x="144.52" y="276" font-size="9" fill="#6b7280" text-anchor="middle">06-04</text>
<text x="239.04" y="276" font-size="9" fill="#6b7280" text-anchor="middle">06-14</text>
<text x="333.56" y="276" font-size="9" fill="#6b7280" text-anchor="middle">06-24</text>
<text x="428.08" y="276" font-size="9" fill="#6b7280" text-anchor="middle">07-04</text>
<text x="522.6" y="276" font-size="9" fill="#6b7280" text-anchor="middle">07-14</text>
<text x="617.12" y="276" font-size="9" fill="#6b7280" text-anchor="middle">07-24</text>
<text x="711.64" y="276" font-size="9" fill="#6b7280" text-anchor="middle">08-03</text>
<polyline fill="none" stroke="#2563eb" stroke-width="2" points="50,260 59.45,259.79 68.9,259.38 78.36,259.38 87.81,258.97 97.26,258.97 106.71,258.77 116.16,258.56 125.62,257.33 135.07,257.33 144.52,257.12 153.97,257.12 163.42,255.68 172.88,254.86 182.33,254.86 191.78,235.53 201.23,231.42 210.68,230.19 220.14,227.72 229.59,224.43 239.04,221.35 248.49,219.91 257.95,217.85 267.4,213.74 276.85,210.86 286.3,208.8 295.75,198.11 305.21,190.71 314.66,186.8 324.11,179.2 333.56,175.91 343.01,173.23 352.47,168.92 361.92,165.21 371.37,159.87 380.82,159.05 390.27,158.02 399.73,157.4 409.18,155.76 418.63,149.59 428.08,146.09 437.53,143.63 446.99,140.95 456.44,138.9 465.89,136.84 475.34,134.58 484.79,133.35 494.25,130.88 503.7,128.82 513.15,127.38 522.6,124.92 532.05,124.5 541.51,123.07 550.96,122.45 560.41,121.01 569.86,120.39 579.32,119.57 588.77,118.75 598.22,118.34 607.67,114.84 617.12,114.02 626.58,112.37 636.03,110.32 645.48,108.67 654.93,107.44 664.38,106.82 673.84,104.36 683.29,104.15 692.74,101.68 702.19,84.21 711.64,82.56 721.1,80.5 730.55,40.62 740,40"/>
<rect x="50" y="283" width="10" height="10" fill="#2563eb"/>
<text x="64" y="292" font-size="10" fill="#374151">count</text>
<polyline fill="none" stroke="#16a34a" stroke-width="2" points="50,260 59.45,259.79 68.9,259.38 78.36,259.38 87.81,259.18 97.26,259.18 106.71,258.97 116.16,258.77 125.62,257.74 135.07,257.74 144.52,257.53 153.97,257.53 163.42,256.71 172.88,256.3 182.33,256.3 191.78,250.75 201.23,249.1 210.68,248.49 220.14,246.84 229.59,244.58 239.04,242.32 248.49,241.5 257.95,240.47 267.4,238 276.85,236.15 286.3,235.12 295.75,231.01 305.21,227.51 314.66,225.66 324.11,221.96 333.56,219.91 343.01,218.06 352.47,215.38 361.92,213.12 371.37,210.04 380.82,209.21 390.27,208.39 399.73,207.78 409.18,206.54 418.63,204.28 428.08,202.64 437.53,200.99 446.99,199.35 456.44,197.91 465.89,196.67 475.34,195.44 484.79,194.62 494.25,193.18 503.7,192.15 513.15,191.12 522.6,189.68 532.05,189.27 541.51,188.24 550.96,187.83 560.41,186.8 569.86,186.39 579.32,185.78 588.77,185.16 598.22,184.75 607.67,182.49 617.12,181.87 626.58,180.84 636.03,179.4 645.48,178.37 654.93,177.55 664.38,177.14 673.84,175.91 683.29,175.7 692.74,174.06 702.19,167.68 711.64,166.45 721.1,165.21 730.55,163.98 740,163.36"/>
<rect x="160" y="283" width="10" height="10" fill="#16a34a"/>
<text x="174" y="292" font-size="10" fill="#374151">uniques</text>
</svg>
