<svg xmlns="http://www.w3.org/2000/svg" width="760" height="300" viewBox="0 0 760 300" font-family="sans-serif">
<rect width="760" height="300" fill="#ffffff"/>
<text x="50" y="24" font-size="16" font-weight="bold" fill="#111827">npm downloads (daily)</text>
<line x1="50" y1="40" x2="50" y2="260" stroke="#d1d5db" stroke-width="1"/>
<line x1="50" y1="260" x2="740" y2="260" stroke="#d1d5db" stroke-width="1"/>
<line x1="50" y1="260" x2="740" y2="260" stroke="#f3f4f6" stroke-width="1"/>
<text x="44" y="264" font-size="10" fill="#6b7280" text-anchor="end">0</text>
<line x1="50" y1="150" x2="740" y2="150" stroke="#f3f4f6" stroke-width="1"/>
<text x="44" y="154" font-size="10" fill="#6b7280" text-anchor="end">135</text>
<line x1="50" y1="40" x2="740" y2="40" stroke="#f3f4f6" stroke-width="1"/>
<text x="44" y="44" font-size="10" fill="#6b7280" text-anchor="end">270</text>
<text x="50" y="276" font-size="9" fill="#6b7280" text-anchor="middle">06-09</text>
<text x="137.89" y="276" font-size="9" fill="#6b7280" text-anchor="middle">07-26</text>
<text x="225.77" y="276" font-size="9" fill="#6b7280" text-anchor="middle">09-11</text>
<text x="313.66" y="276" font-size="9" fill="#6b7280" text-anchor="middle">10-28</text>
<text x="401.54" y="276" font-size="9" fill="#6b7280" text-anchor="middle">12-14</text>
<text x="489.43" y="276" font-size="9" fill="#6b7280" text-anchor="middle">01-30</text>
<text x="577.32" y="276" font-size="9" fill="#6b7280" text-anchor="middle">03-18</text>
<text x="665.2" y="276" font-size="9" fill="#6b7280" text-anchor="middle">05-04</text>
<polyline fill="none" stroke="#2563eb" stroke-width="2" points="50,260 51.87,260 53.74,260 55.61,260 57.48,260 59.35,260 61.22,260 63.09,260 64.96,260 66.83,260 68.7,260 70.57,260 72.44,260 74.31,260 76.18,260 78.05,260 79.92,260 81.79,260 83.66,260 85.53,260 87.4,260 89.27,260 91.14,260 93.01,260 94.88,260 96.75,260 98.62,260 100.49,260 102.36,260 104.23,260 106.1,260 107.97,260 109.84,260 111.71,260 113.58,260 115.45,260 117.32,260 119.19,260 121.06,260 122.93,260 124.8,260 126.67,260 128.54,260 130.41,260 132.28,260 134.15,260 136.02,260 137.89,260 139.76,260 141.63,260 143.5,260 145.37,260 147.24,260 149.11,260 150.98,260 152.85,260 154.72,260 156.59,260 158.46,260 160.33,260 162.2,260 164.07,260 165.93,260 167.8,260 169.67,260 171.54,260 173.41,260 175.28,260 177.15,260 179.02,260 180.89,260 182.76,260 184.63,260 186.5,260 188.37,260 190.24,260 192.11,260 193.98,260 195.85,260 197.72,260 199.59,260 201.46,260 203.33,260 205.2,260 207.07,260 208.94,260 210.81,260 212.68,260 214.55,260 216.42,260 218.29,260 220.16,260 222.03,260 223.9,260 225.77,260 227.64,260 229.51,260 231.38,260 233.25,260 235.12,260 236.99,260 238.86,260 240.73,260 242.6,260 244.47,260 246.34,260 248.21,260 250.08,260 251.95,260 253.82,260 255.69,260 257.56,260 259.43,260 261.3,260 263.17,260 265.04,260 266.91,260 268.78,260 270.65,260 272.52,260 274.39,260 276.26,260 278.13,260 280,260 281.87,260 283.74,260 285.61,260 287.48,260 289.35,260 291.22,260 293.09,260 294.96,260 296.83,260 298.7,260 300.57,260 302.44,260 304.31,260 306.18,260 308.05,260 309.92,260 311.79,260 313.66,260 315.53,260 317.4,260 319.27,260 321.14,260 323.01,260 324.88,260 326.75,260 328.62,260 330.49,260 332.36,260 334.23,260 336.1,260 337.97,260 339.84,260 341.71,260 343.58,260 345.45,260 347.32,260 349.19,260 351.06,260 352.93,260 354.8,260 356.67,260 358.54,260 360.41,260 362.28,260 364.15,260 366.02,260 367.89,260 369.76,260 371.63,260 373.5,260 375.37,260 377.24,260 379.11,260 380.98,260 382.85,260 384.72,260 386.59,260 388.46,260 390.33,260 392.2,260 394.07,260 395.93,260 397.8,260 399.67,260 401.54,260 403.41,260 405.28,260 407.15,260 409.02,260 410.89,260 412.76,260 414.63,260 416.5,260 418.37,260 420.24,260 422.11,260 423.98,260 425.85,260 427.72,260 429.59,260 431.46,260 433.33,260 435.2,260 437.07,260 438.94,260 440.81,260 442.68,260 444.55,260 446.42,260 448.29,260 450.16,260 452.03,260 453.9,260 455.77,260 457.64,260 459.51,260 461.38,260 463.25,260 465.12,260 466.99,260 468.86,260 470.73,260 472.6,260 474.47,260 476.34,260 478.21,260 480.08,260 481.95,260 483.82,260 485.69,260 487.56,260 489.43,260 491.3,260 493.17,260 495.04,260 496.91,260 498.78,260 500.65,260 502.52,260 504.39,260 506.26,260 508.13,260 510,260 511.87,260 513.74,260 515.61,260 517.48,260 519.35,260 521.22,260 523.09,260 524.96,260 526.83,260 528.7,260 530.57,260 532.44,260 534.31,260 536.18,260 538.05,260 539.92,260 541.79,260 543.66,260 545.53,260 547.4,242.89 549.27,164.67 551.14,255.11 553.01,255.11 554.88,259.19 556.75,258.37 558.62,259.19 560.49,258.37 562.36,256.74 564.23,260 566.1,259.19 567.97,257.56 569.84,258.37 571.71,260 573.58,259.19 575.45,260 577.32,259.19 579.19,260 581.06,260 582.93,260 584.8,260 586.67,260 588.54,260 590.41,260 592.28,260 594.15,258.37 596.02,259.19 597.89,258.37 599.76,259.19 601.63,260 603.5,257.56 605.37,259.19 607.24,260 609.11,260 610.98,260 612.85,260 614.72,259.19 616.59,259.19 618.46,259.19 620.33,259.19 622.2,258.37 624.07,259.19 625.93,258.37 627.8,260 629.67,260 631.54,260 633.41,259.19 635.28,260 637.15,260 639.02,260 640.89,166.3 642.76,254.3 644.63,256.74 646.5,260 648.37,260 650.24,259.19 652.11,260 653.98,260 655.85,257.56 657.72,258.37 659.59,258.37 661.46,260 663.33,260 665.2,260 667.07,260 668.94,260 670.81,260 672.68,259.19 674.55,260 676.42,255.11 678.29,260 680.16,259.19 682.03,260 683.9,257.56 685.77,259.19 687.64,260 689.51,42.44 691.38,247.78 693.25,253.48 695.12,250.22 696.99,259.19 698.86,255.93 700.73,257.56 702.6,256.74 704.47,251.04 706.34,255.93 708.21,255.11 710.08,254.3 711.95,252.67 713.82,260 715.69,254.3 717.56,253.48 719.43,251.85 721.3,251.04 723.17,256.74 725.04,256.74 726.91,249.41 728.78,257.56 730.65,260 732.52,246.15 734.39,260 736.26,251.85 738.13,255.11 740,260"/>
<rect x="50" y="283" width="10" height="10" fill="#2563eb"/>
<text x="64" y="292" font-size="10" fill="#374151">downloads</text>
</svg>
