<svg xmlns="http://www.w3.org/2000/svg" width="760" height="300" viewBox="0 0 760 300" font-family="sans-serif">
<rect width="760" height="300" fill="#ffffff"/>
<text x="50" y="24" font-size="16" font-weight="bold" fill="#111827">npm downloads (cumulative total)</text>
<line x1="50" y1="40" x2="50" y2="260" stroke="#d1d5db" stroke-width="1"/>
<line x1="50" y1="260" x2="740" y2="260" stroke="#d1d5db" stroke-width="1"/>
<line x1="50" y1="260" x2="740" y2="260" stroke="#f3f4f6" stroke-width="1"/>
<text x="44" y="264" font-size="10" fill="#6b7280" text-anchor="end">0</text>
<line x1="50" y1="150" x2="740" y2="150" stroke="#f3f4f6" stroke-width="1"/>
<text x="44" y="154" font-size="10" fill="#6b7280" text-anchor="end">830</text>
<line x1="50" y1="40" x2="740" y2="40" stroke="#f3f4f6" stroke-width="1"/>
<text x="44" y="44" font-size="10" fill="#6b7280" text-anchor="end">1660</text>
<text x="50" y="276" font-size="9" fill="#6b7280" text-anchor="middle">06-09</text>
<text x="137.66" y="276" font-size="9" fill="#6b7280" text-anchor="middle">08-10</text>
<text x="225.33" y="276" font-size="9" fill="#6b7280" text-anchor="middle">10-11</text>
<text x="312.99" y="276" font-size="9" fill="#6b7280" text-anchor="middle">12-12</text>
<text x="400.66" y="276" font-size="9" fill="#6b7280" text-anchor="middle">02-12</text>
<text x="488.32" y="276" font-size="9" fill="#6b7280" text-anchor="middle">04-15</text>
<text x="575.98" y="276" font-size="9" fill="#6b7280" text-anchor="middle">06-16</text>
<text x="663.65" y="276" font-size="9" fill="#6b7280" text-anchor="middle">08-17</text>
<polyline fill="none" stroke="#2563eb" stroke-width="2" points="50,260 51.41,260 52.83,260 54.24,260 55.66,260 57.07,260 58.48,260 59.9,260 61.31,260 62.73,260 64.14,260 65.55,260 66.97,260 68.38,260 69.8,260 71.21,260 72.62,260 74.04,260 75.45,260 76.86,260 78.28,260 79.69,260 81.11,260 82.52,260 83.93,260 85.35,260 86.76,260 88.18,260 89.59,260 91,260 92.42,260 93.83,260 95.25,260 96.66,260 98.07,260 99.49,260 100.9,260 102.32,260 103.73,260 105.14,260 106.56,260 107.97,260 109.39,260 110.8,260 112.21,260 113.63,260 115.04,260 116.45,260 117.87,260 119.28,260 120.7,260 122.11,260 123.52,260 124.94,260 126.35,260 127.77,260 129.18,260 130.59,260 132.01,260 133.42,260 134.84,260 136.25,260 137.66,260 139.08,260 140.49,260 141.91,260 143.32,260 144.73,260 146.15,260 147.56,260 148.98,260 150.39,260 151.8,260 153.22,260 154.63,260 156.05,260 157.46,260 158.87,260 160.29,260 161.7,260 163.11,260 164.53,260 165.94,260 167.36,260 168.77,260 170.18,260 171.6,260 173.01,260 174.43,260 175.84,260 177.25,260 178.67,260 180.08,260 181.5,260 182.91,260 184.32,260 185.74,260 187.15,260 188.57,260 189.98,260 191.39,260 192.81,260 194.22,260 195.64,260 197.05,260 198.46,260 199.88,260 201.29,260 202.7,260 204.12,260 205.53,260 206.95,260 208.36,260 209.77,260 211.19,260 212.6,260 214.02,260 215.43,260 216.84,260 218.26,260 219.67,260 221.09,260 222.5,260 223.91,260 225.33,260 226.74,260 228.16,260 229.57,260 230.98,260 232.4,260 233.81,260 235.23,260 236.64,260 238.05,260 239.47,260 240.88,260 242.3,260 243.71,260 245.12,260 246.54,260 247.95,260 249.36,260 250.78,260 252.19,260 253.61,260 255.02,260 256.43,260 257.85,260 259.26,260 260.68,260 262.09,260 263.5,260 264.92,260 266.33,260 267.75,260 269.16,260 270.57,260 271.99,260 273.4,260 274.82,260 276.23,260 277.64,260 279.06,260 280.47,260 281.89,260 283.3,260 284.71,260 286.13,260 287.54,260 288.95,260 290.37,260 291.78,260 293.2,260 294.61,260 296.02,260 297.44,260 298.85,260 300.27,260 301.68,260 303.09,260 304.51,260 305.92,260 307.34,260 308.75,260 310.16,260 311.58,260 312.99,260 314.41,260 315.82,260 317.23,260 318.65,260 320.06,260 321.48,260 322.89,260 324.3,260 325.72,260 327.13,260 328.55,260 329.96,260 331.37,260 332.79,260 334.2,260 335.61,260 337.03,260 338.44,260 339.86,260 341.27,260 342.68,260 344.1,260 345.51,260 346.93,260 348.34,260 349.75,260 351.17,260 352.58,260 354,260 355.41,260 356.82,260 358.24,260 359.65,260 361.07,260 362.48,260 363.89,260 365.31,260 366.72,260 368.14,260 369.55,260 370.96,260 372.38,260 373.79,260 375.2,260 376.62,260 378.03,260 379.45,260 380.86,260 382.27,260 383.69,260 385.1,260 386.52,260 387.93,260 389.34,260 390.76,260 392.17,260 393.59,260 395,260 396.41,260 397.83,260 399.24,260 400.66,260 402.07,260 403.48,260 404.9,260 406.31,260 407.73,260 409.14,260 410.55,260 411.97,260 413.38,260 414.8,260 416.21,260 417.62,260 419.04,260 420.45,260 421.86,260 423.28,260 424.69,260 426.11,257.22 427.52,241.71 428.93,240.92 430.35,240.12 431.76,239.99 433.18,239.72 434.59,239.59 436,239.33 437.42,238.8 438.83,238.8 440.25,238.66 441.66,238.27 443.07,238 444.49,238 445.9,237.87 447.32,237.87 448.73,237.73 450.14,237.73 451.56,237.73 452.97,237.73 454.39,237.73 455.8,237.73 457.21,237.73 458.63,237.73 460.04,237.73 461.45,237.47 462.87,237.34 464.28,237.07 465.7,236.94 467.11,236.94 468.52,236.54 469.94,236.41 471.35,236.41 472.77,236.41 474.18,236.41 475.59,236.41 477.01,236.28 478.42,236.14 479.84,236.01 481.25,235.88 482.66,235.61 484.08,235.48 485.49,235.22 486.91,235.22 488.32,235.22 489.73,235.22 491.15,235.08 492.56,235.08 493.98,235.08 495.39,235.08 496.8,219.84 498.22,218.92 499.63,218.39 501.05,217.46 502.46,217.46 503.87,217.33 505.29,217.33 506.7,217.33 508.11,216.93 509.53,216.66 510.94,216.4 512.36,216.4 513.77,216.4 515.18,216.4 516.6,216.4 518.01,216.4 519.43,216.4 520.84,216.27 522.25,215.73 523.67,214.94 525.08,214.94 526.5,214.81 527.91,214.28 529.32,213.88 530.74,213.75 532.15,213.75 533.57,178.36 534.98,176.37 536.39,175.31 537.81,173.72 539.22,173.59 540.64,172.93 542.05,172.53 543.46,172 544.88,170.54 546.29,169.88 547.7,169.08 549.12,168.16 550.53,166.96 551.95,165.77 553.36,164.84 554.77,163.78 556.19,162.46 557.6,161 559.02,160.47 560.43,159.94 561.84,158.22 563.26,157.82 564.67,157.82 566.09,155.57 567.5,155.57 568.91,154.24 570.33,153.45 571.74,153.31 573.16,152.52 574.57,151.86 575.98,151.06 577.4,150.8 578.81,148.54 580.23,147.75 581.64,147.61 583.05,146.69 584.47,145.49 585.88,126.67 587.3,124.02 588.71,124.02 590.12,122.83 591.54,122.04 592.95,120.71 594.36,120.71 595.78,119.12 597.19,117.27 598.61,115.01 600.02,113.55 601.43,113.02 602.85,112.76 604.26,111.43 605.68,111.3 607.09,110.37 608.5,109.31 609.92,109.05 611.33,108.92 612.75,108.92 614.16,108.52 615.57,108.39 616.99,107.99 618.4,107.46 619.82,105.34 621.23,104.28 622.64,104.01 624.06,103.48 625.47,103.22 626.89,102.16 628.3,100.83 629.71,99.9 631.13,99.37 632.54,98.45 633.95,97.39 635.37,97.39 636.78,97.25 638.2,96.99 639.61,96.99 641.02,96.86 642.44,95.93 643.85,95.4 645.27,95 646.68,94.87 648.09,94.2 649.51,93.81 650.92,93.01 652.34,92.61 653.75,92.22 655.16,91.29 656.58,90.63 657.99,89.17 659.41,89.17 660.82,89.04 662.23,87.71 663.65,87.58 665.06,87.18 666.48,87.05 667.89,86.12 669.3,85.86 670.72,85.06 672.13,84.53 673.55,82.54 674.96,81.61 676.37,80.55 677.79,79.76 679.2,77.9 680.61,76.31 682.03,74.99 683.44,73 684.86,72.07 686.27,71.41 687.68,71.41 689.1,71.41 690.51,67.96 691.93,65.84 693.34,65.84 694.75,65.84 696.17,65.45 697.58,64.78 699,64.39 700.41,63.46 701.82,63.06 703.24,62.66 704.65,62.66 706.07,62.53 707.48,61.73 708.89,61.6 710.31,61.07 711.72,59.48 713.14,56.43 714.55,56.04 715.96,55.77 717.38,55.77 718.79,55.37 720.2,55.24 721.62,54.84 723.03,54.71 724.45,53.52 725.86,52.59 727.27,52.19 728.69,51.4 730.1,49.41 731.52,45.57 732.93,44.11 734.34,44.11 735.76,42.65 737.17,40.8 738.59,40.8 740,40.8"/>
<rect x="50" y="283" width="10" height="10" fill="#2563eb"/>
<text x="64" y="292" font-size="10" fill="#374151">downloads</text>
</svg>
