<svg xmlns="http://www.w3.org/2000/svg" width="760" height="300" viewBox="0 0 760 300" font-family="sans-serif">
<rect width="760" height="300" fill="#ffffff"/>
<text x="50" y="24" font-size="16" font-weight="bold" fill="#111827">npm downloads (cumulative total)</text>
<line x1="50" y1="40" x2="50" y2="260" stroke="#d1d5db" stroke-width="1"/>
<line x1="50" y1="260" x2="740" y2="260" stroke="#d1d5db" stroke-width="1"/>
<line x1="50" y1="260" x2="740" y2="260" stroke="#f3f4f6" stroke-width="1"/>
<text x="44" y="264" font-size="10" fill="#6b7280" text-anchor="end">0</text>
<line x1="50" y1="150" x2="740" y2="150" stroke="#f3f4f6" stroke-width="1"/>
<text x="44" y="154" font-size="10" fill="#6b7280" text-anchor="end">610</text>
<line x1="50" y1="40" x2="740" y2="40" stroke="#f3f4f6" stroke-width="1"/>
<text x="44" y="44" font-size="10" fill="#6b7280" text-anchor="end">1220</text>
<text x="50" y="276" font-size="9" fill="#6b7280" text-anchor="middle">06-09</text>
<text x="136.86" y="276" font-size="9" fill="#6b7280" text-anchor="middle">08-01</text>
<text x="223.73" y="276" font-size="9" fill="#6b7280" text-anchor="middle">09-23</text>
<text x="310.59" y="276" font-size="9" fill="#6b7280" text-anchor="middle">11-15</text>
<text x="397.46" y="276" font-size="9" fill="#6b7280" text-anchor="middle">01-07</text>
<text x="484.32" y="276" font-size="9" fill="#6b7280" text-anchor="middle">03-01</text>
<text x="571.19" y="276" font-size="9" fill="#6b7280" text-anchor="middle">04-23</text>
<text x="658.05" y="276" font-size="9" fill="#6b7280" text-anchor="middle">06-15</text>
<polyline fill="none" stroke="#2563eb" stroke-width="2" points="50,260 51.64,260 53.28,260 54.92,260 56.56,260 58.19,260 59.83,260 61.47,260 63.11,260 64.75,260 66.39,260 68.03,260 69.67,260 71.31,260 72.95,260 74.58,260 76.22,260 77.86,260 79.5,260 81.14,260 82.78,260 84.42,260 86.06,260 87.7,260 89.33,260 90.97,260 92.61,260 94.25,260 95.89,260 97.53,260 99.17,260 100.81,260 102.45,260 104.09,260 105.72,260 107.36,260 109,260 110.64,260 112.28,260 113.92,260 115.56,260 117.2,260 118.84,260 120.48,260 122.11,260 123.75,260 125.39,260 127.03,260 128.67,260 130.31,260 131.95,260 133.59,260 135.23,260 136.86,260 138.5,260 140.14,260 141.78,260 143.42,260 145.06,260 146.7,260 148.34,260 149.98,260 151.62,260 153.25,260 154.89,260 156.53,260 158.17,260 159.81,260 161.45,260 163.09,260 164.73,260 166.37,260 168,260 169.64,260 171.28,260 172.92,260 174.56,260 176.2,260 177.84,260 179.48,260 181.12,260 182.76,260 184.39,260 186.03,260 187.67,260 189.31,260 190.95,260 192.59,260 194.23,260 195.87,260 197.51,260 199.14,260 200.78,260 202.42,260 204.06,260 205.7,260 207.34,260 208.98,260 210.62,260 212.26,260 213.9,260 215.53,260 217.17,260 218.81,260 220.45,260 222.09,260 223.73,260 225.37,260 227.01,260 228.65,260 230.29,260 231.92,260 233.56,260 235.2,260 236.84,260 238.48,260 240.12,260 241.76,260 243.4,260 245.04,260 246.67,260 248.31,260 249.95,260 251.59,260 253.23,260 254.87,260 256.51,260 258.15,260 259.79,260 261.43,260 263.06,260 264.7,260 266.34,260 267.98,260 269.62,260 271.26,260 272.9,260 274.54,260 276.18,260 277.81,260 279.45,260 281.09,260 282.73,260 284.37,260 286.01,260 287.65,260 289.29,260 290.93,260 292.57,260 294.2,260 295.84,260 297.48,260 299.12,260 300.76,260 302.4,260 304.04,260 305.68,260 307.32,260 308.95,260 310.59,260 312.23,260 313.87,260 315.51,260 317.15,260 318.79,260 320.43,260 322.07,260 323.71,260 325.34,260 326.98,260 328.62,260 330.26,260 331.9,260 333.54,260 335.18,260 336.82,260 338.46,260 340.1,260 341.73,260 343.37,260 345.01,260 346.65,260 348.29,260 349.93,260 351.57,260 353.21,260 354.85,260 356.48,260 358.12,260 359.76,260 361.4,260 363.04,260 364.68,260 366.32,260 367.96,260 369.6,260 371.24,260 372.87,260 374.51,260 376.15,260 377.79,260 379.43,260 381.07,260 382.71,260 384.35,260 385.99,260 387.62,260 389.26,260 390.9,260 392.54,260 394.18,260 395.82,260 397.46,260 399.1,260 400.74,260 402.38,260 404.01,260 405.65,260 407.29,260 408.93,260 410.57,260 412.21,260 413.85,260 415.49,260 417.13,260 418.76,260 420.4,260 422.04,260 423.68,260 425.32,260 426.96,260 428.6,260 430.24,260 431.88,260 433.52,260 435.15,260 436.79,260 438.43,260 440.07,260 441.71,260 443.35,260 444.99,260 446.63,260 448.27,260 449.9,260 451.54,260 453.18,260 454.82,260 456.46,260 458.1,260 459.74,260 461.38,260 463.02,260 464.66,260 466.29,260 467.93,260 469.57,260 471.21,260 472.85,260 474.49,260 476.13,260 477.77,260 479.41,260 481.05,260 482.68,260 484.32,260 485.96,256.21 487.6,235.11 489.24,234.03 490.88,232.95 492.52,232.77 494.16,232.41 495.8,232.23 497.43,231.87 499.07,231.15 500.71,231.15 502.35,230.97 503.99,230.43 505.63,230.07 507.27,230.07 508.91,229.89 510.55,229.89 512.19,229.7 513.82,229.7 515.46,229.7 517.1,229.7 518.74,229.7 520.38,229.7 522.02,229.7 523.66,229.7 525.3,229.7 526.94,229.34 528.57,229.16 530.21,228.8 531.85,228.62 533.49,228.62 535.13,228.08 536.77,227.9 538.41,227.9 540.05,227.9 541.69,227.9 543.33,227.9 544.96,227.72 546.6,227.54 548.24,227.36 549.88,227.18 551.52,226.82 553.16,226.64 554.8,226.28 556.44,226.28 558.08,226.28 559.71,226.28 561.35,226.1 562.99,226.1 564.63,226.1 566.27,226.1 567.91,205.36 569.55,204.1 571.19,203.38 572.83,203.38 574.47,203.38 576.1,203.2 577.74,203.2 579.38,203.2 581.02,202.66 582.66,202.3 584.3,201.93 585.94,201.93 587.58,201.93 589.22,201.93 590.86,201.93 592.49,201.93 594.13,201.93 595.77,201.75 597.41,201.75 599.05,200.67 600.69,200.67 602.33,200.49 603.97,200.49 605.61,199.95 607.24,199.77 608.88,199.77 610.52,151.62 612.16,148.92 613.8,147.48 615.44,145.31 617.08,145.13 618.72,144.23 620.36,143.69 622,142.97 623.63,140.98 625.27,140.08 626.91,139 628.55,137.74 630.19,136.11 631.83,136.11 633.47,134.85 635.11,133.41 636.75,131.61 638.38,129.62 640.02,128.9 641.66,128.18 643.3,125.84 644.94,125.3 646.58,125.3 648.22,122.23 649.86,122.23 651.5,120.43 653.14,119.34 654.77,119.16 656.41,118.08 658.05,117.18 659.69,116.1 661.33,115.74 662.97,112.67 664.61,111.59 666.25,111.41 667.89,110.15 669.52,108.52 671.16,82.92 672.8,79.31 674.44,79.31 676.08,77.69 677.72,76.61 679.36,74.8 681,74.8 682.64,72.64 684.28,70.11 685.91,67.05 687.55,65.07 689.19,64.34 690.83,63.98 692.47,62.18 694.11,62.18 695.75,60.92 697.39,59.48 699.03,59.11 700.67,58.93 702.3,58.93 703.94,58.39 705.58,58.21 707.22,57.67 708.86,56.95 710.5,54.07 712.14,52.62 713.78,52.26 715.42,51.54 717.05,51.18 718.69,49.74 720.33,47.93 721.97,46.67 723.61,45.95 725.25,44.69 726.89,43.25 728.53,43.25 730.17,43.07 731.81,42.7 733.44,42.7 735.08,42.52 736.72,41.26 738.36,41.26 740,41.26"/>
<rect x="50" y="283" width="10" height="10" fill="#2563eb"/>
<text x="64" y="292" font-size="10" fill="#374151">downloads</text>
</svg>
